# xmcd
#
# Track frame offsets: 
#        150
#        23417
#        44467
#        69927
#        90517
#        119472
#        136305
#        166837
#        195792
#        219687
#        242685
#
# Disc length: 3508 seconds
#
# Revision: 2
# Processed by: cddbd v1.5.2PL0 Copyright (c) Steve Scherf et al.
# Submitted via: ExactAudioCopyFreeDBPlugin 1.0
#
DISCID=870db20b
DTITLE=梁秀京 - 鳳仙花-韓国古謡集
DYEAR=2003
DGENRE=Folk
TTITLE0=アリラン
TTITLE1=舟歌
TTITLE2=鳳仙花
TTITLE3=花売りの歌
TTITLE4=待ちわびる心
TTITLE5=恨五百年
TTITLE6=カスマブゲ
TTITLE7=夢に見る故郷
TTITLE8=子守歌
TTITLE9=お母さん
TTITLE10=アリラン(日本語)
EXTD=
EXTT0=
EXTT1=
EXTT2=
EXTT3=
EXTT4=
EXTT5=
EXTT6=
EXTT7=
EXTT8=
EXTT9=
EXTT10=
PLAYORDER=
